<svg width="363" height="256" viewBox="0 0 363 256" fill="none" xmlns="http://www.w3.org/2000/svg">
<g clip-path="url(#clip0_219_1556)">
<g clip-path="url(#clip1_219_1556)">
<g clip-path="url(#clip2_219_1556)">
<g clip-path="url(#clip3_219_1556)">
<g clip-path="url(#clip4_219_1556)">
<g clip-path="url(#clip5_219_1556)">
<g clip-path="url(#clip6_219_1556)">
<g clip-path="url(#clip7_219_1556)">
<path d="M79.6128 130.454H74.061V109.56C74.061 107.809 73.8422 106.291 73.4046 105.006C72.9579 103.712 72.2286 102.713 71.2167 102.011C70.2048 101.3 68.8419 100.945 67.1281 100.945C65.5145 100.945 64.1152 101.278 62.9301 101.943C61.7449 102.599 60.7877 103.484 60.0584 104.596C59.3291 105.699 58.8141 106.957 58.5132 108.37L57.6654 104.432H58.3491C58.7138 103.001 59.3291 101.67 60.1952 100.439C61.0612 99.2082 62.2327 98.2145 63.7095 97.4578C65.1954 96.7103 67.0324 96.3365 69.2203 96.3365C71.6999 96.3365 73.6964 96.8243 75.2097 97.7997C76.723 98.7842 77.8351 100.215 78.5462 102.093C79.2573 103.971 79.6128 106.255 79.6128 108.944V130.454ZM37.9333 130.454H32.3951V97.0886H37.9333L37.7008 105.088L37.9333 105.43V130.454ZM58.7594 130.454H53.2486V109.56C53.2486 107.809 53.0252 106.291 52.5785 105.006C52.1318 103.712 51.4117 102.713 50.418 102.011C49.4152 101.3 48.0569 100.945 46.343 100.945C44.7021 100.945 43.2891 101.278 42.104 101.943C40.9188 102.599 39.9616 103.493 39.2323 104.623C38.503 105.754 37.9925 107.039 37.7008 108.479L36.6752 104.541H37.9059C38.2432 103.037 38.8358 101.665 39.6836 100.425C40.5223 99.1762 41.6664 98.1826 43.1159 97.4442C44.5653 96.7057 46.3248 96.3365 48.3942 96.3365C51.4755 96.3365 53.8184 97.1342 55.4228 98.7295C57.0273 100.325 58.0346 102.65 58.4449 105.703C58.5634 106.159 58.6454 106.656 58.691 107.194C58.7366 107.723 58.7594 108.251 58.7594 108.78V130.454ZM102.203 131.206C97.116 131.206 93.2872 129.962 90.7164 127.473C88.1365 124.993 86.8466 121.438 86.8466 116.807V110.859C86.8466 106.164 88.0453 102.549 90.4429 100.015C92.8314 97.4715 96.3275 96.1998 100.931 96.1998C104.031 96.1998 106.62 96.7741 108.698 97.9228C110.768 99.0714 112.327 100.708 113.375 102.832C114.423 104.947 114.947 107.477 114.947 110.421V111.652C114.947 112.381 114.92 113.11 114.865 113.84C114.811 114.569 114.738 115.285 114.647 115.987H109.546C109.592 114.893 109.624 113.858 109.642 112.883C109.651 111.898 109.655 110.995 109.655 110.175C109.655 108.151 109.332 106.437 108.685 105.033C108.028 103.63 107.057 102.558 105.772 101.82C104.487 101.082 102.873 100.712 100.931 100.712C98.0596 100.712 95.9081 101.542 94.4769 103.201C93.0365 104.869 92.3163 107.253 92.3163 110.353V113.525L92.3573 114.209V117.395C92.3573 118.781 92.5625 120.034 92.9727 121.156C93.3829 122.268 94.0256 123.229 94.9008 124.041C95.7759 124.852 96.8927 125.468 98.251 125.887C99.6093 126.306 101.223 126.516 103.092 126.516C105.252 126.516 107.267 126.233 109.136 125.668C111.005 125.094 112.76 124.319 114.4 123.343L113.895 128.129C112.409 129.059 110.686 129.807 108.726 130.372C106.766 130.928 104.591 131.206 102.203 131.206ZM113.484 115.987H89.7592V111.816H113.484V115.987ZM133.339 131.179C129.328 131.179 126.274 129.935 124.178 127.446C122.081 124.957 121.033 121.333 121.033 116.575V111.064C121.033 106.278 122.095 102.627 124.219 100.111C126.334 97.5946 129.456 96.3365 133.586 96.3365C135.637 96.3365 137.414 96.6829 138.919 97.3758C140.423 98.0686 141.64 99.0441 142.57 100.302C143.509 101.551 144.138 103.032 144.457 104.746H146.262L144.621 109.833C144.557 107.873 144.119 106.228 143.308 104.897C142.497 103.566 141.403 102.558 140.026 101.875C138.65 101.191 137.073 100.849 135.295 100.849C132.469 100.849 130.308 101.67 128.813 103.31C127.318 104.951 126.571 107.367 126.571 110.558V116.916C126.571 120.062 127.318 122.455 128.813 124.096C130.308 125.736 132.469 126.557 135.295 126.557C136.981 126.557 138.472 126.233 139.766 125.586C141.07 124.93 142.146 124.027 142.994 122.879C143.851 121.73 144.439 120.426 144.758 118.968L146.125 122.933H144.484C144.165 124.437 143.554 125.814 142.652 127.063C141.758 128.321 140.55 129.319 139.028 130.058C137.515 130.805 135.619 131.179 133.339 131.179ZM150.022 130.454H144.484L144.73 122.386L144.621 120.609V106.661L144.662 105.498L144.525 96.022V85.1509H150.022V130.454ZM189.883 131.179C187.832 131.179 186.054 130.832 184.55 130.14C183.046 129.456 181.824 128.476 180.885 127.2C179.955 125.923 179.331 124.442 179.012 122.755H177.193L178.807 117.559C178.898 119.565 179.345 121.238 180.147 122.578C180.958 123.909 182.061 124.902 183.456 125.559C184.842 126.224 186.414 126.557 188.174 126.557C190.972 126.557 193.119 125.736 194.614 124.096C196.109 122.455 196.857 120.048 196.857 116.875V110.49C196.857 107.344 196.114 104.951 194.628 103.31C193.151 101.67 191 100.849 188.174 100.849C186.487 100.849 184.992 101.177 183.689 101.834C182.394 102.499 181.318 103.402 180.461 104.541C179.604 105.681 179.016 106.98 178.697 108.438L177.33 104.569H178.944C179.308 103.046 179.928 101.665 180.803 100.425C181.678 99.1762 182.886 98.1826 184.427 97.4442C185.968 96.7057 187.864 96.3365 190.116 96.3365C194.127 96.3365 197.181 97.5855 199.277 100.083C201.374 102.572 202.422 106.187 202.422 110.927V116.465C202.422 121.251 201.37 124.898 199.264 127.405C197.158 129.921 194.031 131.179 189.883 131.179ZM178.944 142.214H173.433V97.0886H178.971L178.738 105.115L178.807 106.825V120.882L178.766 122.003L178.944 131.384V142.214ZM215.823 130.454H210.313V85.1509H215.823V130.454ZM224.602 97.0886H230.113V117.846C230.113 119.597 230.355 121.128 230.838 122.441C231.33 123.754 232.137 124.766 233.258 125.477C234.37 126.197 235.875 126.557 237.771 126.557C239.548 126.557 241.075 126.233 242.352 125.586C243.628 124.93 244.667 124.032 245.469 122.892C246.281 121.753 246.837 120.467 247.138 119.036L248.122 122.961H246.933C246.586 124.465 245.957 125.841 245.046 127.09C244.134 128.33 242.908 129.319 241.367 130.058C239.836 130.805 237.939 131.179 235.679 131.179C233.062 131.179 230.938 130.682 229.306 129.688C227.675 128.695 226.485 127.245 225.737 125.34C224.981 123.435 224.602 121.137 224.602 118.448V97.0886ZM246.892 97.0886H252.43V130.454H246.892L247.138 122.455L246.892 122.113V97.0886ZM271.875 131.206C269.185 131.206 266.838 130.915 264.832 130.331C262.827 129.748 261.163 129.114 259.841 128.43L259.335 123.302C260.994 124.168 262.822 124.921 264.819 125.559C266.815 126.197 269.076 126.516 271.601 126.516C274.181 126.516 276.118 126.106 277.413 125.285C278.716 124.474 279.368 123.257 279.368 121.634V121.251C279.368 120.203 279.122 119.337 278.63 118.653C278.138 117.969 277.253 117.368 275.977 116.848C274.701 116.319 272.891 115.795 270.548 115.276C267.74 114.656 265.53 113.931 263.916 113.101C262.294 112.272 261.136 111.242 260.443 110.011C259.75 108.78 259.404 107.276 259.404 105.498V105.184C259.404 102.267 260.416 100.056 262.439 98.5518C264.472 97.0476 267.526 96.2955 271.601 96.2955C274.227 96.2955 276.501 96.5918 278.425 97.1843C280.348 97.7769 281.925 98.4378 283.156 99.1671L283.676 103.857C282.19 102.991 280.49 102.271 278.575 101.697C276.661 101.132 274.509 100.849 272.121 100.849C270.389 100.849 268.985 101.027 267.909 101.382C266.843 101.729 266.068 102.23 265.585 102.887C265.11 103.534 264.873 104.313 264.873 105.225V105.498C264.873 106.501 265.11 107.349 265.585 108.042C266.068 108.735 266.929 109.341 268.169 109.861C269.409 110.371 271.136 110.863 273.352 111.337C276.196 111.912 278.457 112.595 280.134 113.388C281.811 114.191 283.015 115.203 283.744 116.424C284.473 117.637 284.838 119.2 284.838 121.115V121.703C284.838 124.848 283.744 127.218 281.556 128.813C279.368 130.409 276.141 131.206 271.875 131.206Z" fill="white"/>
</g>
</g>
<g clip-path="url(#clip8_219_1556)">
<g clip-path="url(#clip9_219_1556)">
<path d="M36.1482 167.902C35.6033 167.902 35.1035 167.857 34.6487 167.767C34.1963 167.677 33.7924 167.567 33.4371 167.437C33.0818 167.306 32.7857 167.176 32.5488 167.046L32.3995 165.582C32.8543 165.854 33.3909 166.092 34.0091 166.296C34.6298 166.5 35.3037 166.602 36.0309 166.602C36.9074 166.602 37.5552 166.446 37.9745 166.136C38.3962 165.826 38.607 165.359 38.607 164.736V164.598C38.607 164.188 38.5241 163.853 38.3583 163.592C38.1925 163.331 37.9129 163.112 37.5197 162.935C37.1265 162.757 36.5923 162.591 35.9172 162.437C35.0644 162.236 34.381 161.998 33.867 161.723C33.3553 161.446 32.9858 161.1 32.7584 160.686C32.531 160.271 32.4173 159.756 32.4173 159.14V159.062C32.4173 158.131 32.7217 157.413 33.3305 156.908C33.9416 156.402 34.8655 156.148 36.102 156.148C36.9145 156.148 37.6062 156.231 38.1771 156.397C38.7479 156.563 39.2146 156.746 39.577 156.948L39.7085 158.298C39.2892 158.049 38.7989 157.837 38.2375 157.662C37.6784 157.486 37.0377 157.399 36.3152 157.399C35.7419 157.399 35.2765 157.467 34.9188 157.605C34.5658 157.74 34.3088 157.935 34.1477 158.191C33.989 158.445 33.9097 158.753 33.9097 159.115V159.151C33.9097 159.518 33.9878 159.832 34.1442 160.092C34.3005 160.353 34.5753 160.578 34.9685 160.767C35.3641 160.957 35.9255 161.14 36.6527 161.318C37.4889 161.512 38.1581 161.737 38.6603 161.993C39.1648 162.247 39.5308 162.578 39.7582 162.988C39.9856 163.395 40.0993 163.928 40.0993 164.587V164.775C40.0993 165.799 39.7689 166.576 39.108 167.106C38.4495 167.637 37.4629 167.902 36.1482 167.902ZM45.7383 167.696H43.5282L41.3963 159.026H42.878L44.5835 166.648H44.754L46.5307 159.257H48.5631L50.3397 166.648H50.4996L52.2229 159.026H53.6975L51.5655 167.696H49.3626L47.8986 161.531L47.6144 160.295H47.4794L47.2058 161.531L45.7383 167.696ZM56.835 167.696H55.3924V159.026H56.835V167.696ZM56.1137 157.605C55.8176 157.605 55.5973 157.527 55.4528 157.37C55.3083 157.212 55.236 156.996 55.236 156.724V156.681C55.236 156.402 55.3083 156.185 55.4528 156.031C55.5973 155.877 55.8176 155.8 56.1137 155.8C56.4098 155.8 56.6324 155.877 56.7817 156.031C56.9285 156.185 57.002 156.402 57.002 156.681V156.724C57.002 157.003 56.9285 157.22 56.7817 157.374C56.6324 157.528 56.4098 157.605 56.1137 157.605ZM62.1257 155.686C62.571 155.686 62.9702 155.726 63.3231 155.807C63.6737 155.885 63.997 155.983 64.2931 156.102L64.4353 157.232C64.1463 157.125 63.8549 157.041 63.5612 156.98C63.2675 156.916 62.937 156.884 62.5698 156.884C62.1269 156.884 61.7704 156.942 61.5003 157.058C61.2303 157.174 61.0384 157.337 60.9247 157.548C60.8086 157.756 60.7506 158.009 60.7506 158.305V158.351C60.7506 158.557 60.7767 158.754 60.8288 158.941C60.8833 159.128 60.9425 159.299 61.0064 159.453L60.04 159.488V159.31C59.8552 159.168 59.6941 158.969 59.5567 158.713C59.417 158.46 59.3471 158.164 59.3471 157.825V157.783C59.3471 157.148 59.5721 156.64 60.0222 156.258C60.4723 155.877 61.1734 155.686 62.1257 155.686ZM61.0704 167.696H59.6384V159.797H61.0704V167.696ZM64.2683 160.501H58.2101V159.353L60.1892 159.364L60.7755 159.353H64.3997L64.2683 160.501ZM69.0367 167.874C68.3687 167.874 67.8298 167.773 67.42 167.572C67.0125 167.37 66.7164 167.065 66.5317 166.655C66.3493 166.247 66.2581 165.738 66.2581 165.127V159.655H67.6794V164.96C67.6794 165.529 67.8096 165.948 68.0702 166.218C68.3308 166.486 68.769 166.619 69.3849 166.619C69.7331 166.619 70.0683 166.581 70.3905 166.506C70.715 166.428 71.0194 166.317 71.3036 166.175L71.1686 167.412C70.8915 167.554 70.5658 167.666 70.1915 167.749C69.8196 167.832 69.4346 167.874 69.0367 167.874ZM71.0798 160.305H64.8368V159.151H71.2148L71.0798 160.305ZM67.6438 159.293H66.2652L66.2581 156.859L67.7042 156.67L67.6438 159.293ZM74.3843 167.696H72.9523V155.924H74.3843V167.696ZM79.8455 166.353H80.6734L79.9166 166.683L82.5105 159.026H83.9957L79.9166 170.752H78.4598L79.8278 166.79L80.4603 167.341H78.8258L75.9903 159.026H77.4827L79.8455 166.353ZM93.1061 167.92C91.8625 167.92 90.9197 167.583 90.2778 166.911C89.6358 166.238 89.3148 165.27 89.3148 164.008V162.686C89.3148 161.431 89.637 160.468 90.2813 159.797C90.928 159.129 91.8696 158.795 93.1061 158.795C94.3497 158.795 95.2925 159.129 95.9345 159.797C96.5788 160.468 96.901 161.431 96.901 162.686V164.008C96.901 165.27 96.5788 166.238 95.9345 166.911C95.2925 167.583 94.3497 167.92 93.1061 167.92ZM93.1061 166.744C93.876 166.744 94.4611 166.516 94.8614 166.062C95.2617 165.604 95.4619 164.947 95.4619 164.089V162.604C95.4619 161.751 95.2617 161.099 94.8614 160.646C94.4611 160.194 93.876 159.968 93.1061 159.968C92.3434 159.968 91.7606 160.194 91.3579 160.646C90.9552 161.099 90.7539 161.751 90.7539 162.604V164.089C90.7539 164.947 90.9552 165.604 91.3579 166.062C91.7606 166.516 92.3434 166.744 93.1061 166.744ZM100.266 162.391L99.9354 161.282L100.291 161.265C100.48 160.53 100.806 159.951 101.268 159.527C101.73 159.103 102.343 158.891 103.108 158.891C103.298 158.891 103.468 158.907 103.62 158.937C103.769 158.966 103.903 159.001 104.022 159.044L104.11 160.437C103.964 160.389 103.8 160.352 103.62 160.323C103.438 160.292 103.238 160.277 103.02 160.277C102.368 160.277 101.801 160.458 101.318 160.821C100.834 161.183 100.484 161.706 100.266 162.391ZM100.337 167.696H98.8979V159.026H100.301L100.23 161.584L100.337 161.691V167.696ZM108.9 165.102C107.72 165.102 106.816 164.845 106.185 164.331C105.555 163.815 105.24 163.077 105.24 162.117V161.897C105.24 161.298 105.362 160.776 105.606 160.33C105.853 159.887 106.246 159.54 106.786 159.289C107.324 159.036 108.028 158.897 108.9 158.873L113.324 158.731V159.868L110.712 159.779L110.702 159.843C111.111 159.926 111.447 160.068 111.707 160.27C111.968 160.471 112.161 160.722 112.286 161.023C112.414 161.326 112.478 161.679 112.478 162.082V162.277C112.478 163.194 112.176 163.894 111.572 164.377C110.968 164.861 110.077 165.102 108.9 165.102ZM108.836 169.881H109.042C109.575 169.881 110.032 169.841 110.414 169.76C110.795 169.682 111.09 169.557 111.299 169.384C111.505 169.213 111.608 168.986 111.608 168.702V168.666C111.608 168.334 111.488 168.081 111.249 167.906C111.01 167.73 110.6 167.615 110.019 167.561L107.568 167.341L107.976 167.323C107.645 167.37 107.352 167.447 107.099 167.554C106.848 167.66 106.651 167.801 106.509 167.977C106.367 168.152 106.296 168.37 106.296 168.63V168.648C106.296 168.949 106.4 169.192 106.608 169.377C106.814 169.559 107.107 169.689 107.486 169.768C107.865 169.843 108.315 169.881 108.836 169.881ZM109.014 171.029H108.758C107.976 171.029 107.302 170.961 106.736 170.826C106.17 170.694 105.732 170.478 105.422 170.18C105.111 169.881 104.956 169.48 104.956 168.975V168.94C104.956 168.584 105.04 168.288 105.208 168.051C105.377 167.814 105.604 167.627 105.891 167.49C106.18 167.355 106.502 167.264 106.857 167.216L106.846 167.163C106.361 167.08 106.003 166.937 105.773 166.733C105.541 166.527 105.425 166.262 105.425 165.937V165.927C105.425 165.701 105.477 165.51 105.581 165.351C105.686 165.19 105.842 165.062 106.05 164.967C106.261 164.872 106.53 164.813 106.857 164.789V164.612L108.509 165.031L107.834 165.013C107.431 165.018 107.153 165.067 106.999 165.159C106.845 165.251 106.768 165.389 106.768 165.571V165.582C106.768 165.776 106.877 165.924 107.095 166.026C107.315 166.125 107.688 166.205 108.214 166.264L110.321 166.477C111.238 166.572 111.907 166.793 112.329 167.142C112.748 167.488 112.958 167.998 112.958 168.673V168.719C112.958 169.257 112.798 169.698 112.478 170.041C112.158 170.385 111.706 170.635 111.121 170.791C110.533 170.95 109.831 171.029 109.014 171.029ZM108.882 164.036C109.38 164.036 109.792 163.964 110.119 163.819C110.448 163.673 110.697 163.453 110.865 163.162C111.036 162.868 111.121 162.508 111.121 162.082V161.869C111.121 161.454 111.039 161.101 110.876 160.81C110.712 160.521 110.468 160.301 110.144 160.149C109.817 159.997 109.408 159.922 108.918 159.922H108.865C108.332 159.922 107.897 160.003 107.561 160.167C107.227 160.33 106.984 160.559 106.832 160.853C106.683 161.144 106.608 161.485 106.608 161.876V162.082C106.608 162.508 106.692 162.866 106.861 163.155C107.029 163.446 107.282 163.665 107.621 163.812C107.957 163.962 108.378 164.036 108.882 164.036ZM121.201 167.696H119.769L119.833 165.589L119.78 165.369V162.604L119.787 162.1C119.787 161.394 119.608 160.873 119.251 160.536C118.893 160.198 118.326 160.028 117.549 160.028C116.928 160.028 116.358 160.117 115.84 160.295C115.321 160.472 114.86 160.681 114.457 160.92L114.592 159.691C114.817 159.556 115.085 159.422 115.395 159.289C115.706 159.154 116.061 159.043 116.461 158.955C116.862 158.865 117.301 158.82 117.78 158.82C118.403 158.82 118.932 158.896 119.368 159.047C119.801 159.199 120.153 159.417 120.423 159.701C120.693 159.986 120.89 160.329 121.013 160.732C121.139 161.134 121.201 161.584 121.201 162.082V167.696ZM116.785 167.884C115.927 167.884 115.269 167.675 114.809 167.255C114.35 166.838 114.12 166.242 114.12 165.465V165.209C114.12 164.408 114.367 163.811 114.862 163.418C115.358 163.025 116.144 162.751 117.222 162.597L119.965 162.206L120.047 163.254L117.399 163.635C116.736 163.729 116.262 163.892 115.978 164.121C115.694 164.349 115.552 164.684 115.552 165.127V165.269C115.552 165.726 115.693 166.076 115.975 166.317C116.254 166.561 116.676 166.683 117.24 166.683C117.737 166.683 118.163 166.597 118.519 166.424C118.874 166.253 119.161 166.022 119.379 165.731C119.599 165.442 119.747 165.12 119.823 164.765L120.047 165.742H119.769C119.687 166.121 119.531 166.473 119.304 166.797C119.077 167.124 118.758 167.387 118.348 167.586C117.941 167.785 117.42 167.884 116.785 167.884ZM130.642 167.696H129.203V162.302C129.203 161.836 129.139 161.434 129.011 161.098C128.886 160.759 128.678 160.496 128.389 160.309C128.103 160.122 127.711 160.028 127.213 160.028C126.759 160.028 126.363 160.115 126.027 160.288C125.693 160.458 125.423 160.69 125.216 160.984C125.008 161.278 124.862 161.612 124.779 161.986L124.524 160.963H124.833C124.927 160.572 125.093 160.215 125.33 159.893C125.567 159.569 125.886 159.31 126.286 159.119C126.686 158.927 127.177 158.831 127.757 158.831C128.444 158.831 128.998 158.961 129.42 159.222C129.844 159.482 130.154 159.856 130.351 160.344C130.545 160.832 130.642 161.432 130.642 162.142V167.696ZM124.843 167.696H123.404V159.026H124.843L124.779 161.105L124.843 161.187V167.696ZM134.338 167.696H132.899V159.026H134.338V167.696ZM133.616 157.605C133.32 157.605 133.1 157.527 132.955 157.37C132.811 157.212 132.739 156.996 132.739 156.724V156.681C132.739 156.402 132.811 156.185 132.955 156.031C133.1 155.877 133.32 155.8 133.616 155.8C133.912 155.8 134.135 155.877 134.284 156.031C134.431 156.185 134.505 156.402 134.505 156.681V156.724C134.505 157.003 134.431 157.22 134.284 157.374C134.135 157.528 133.912 157.605 133.616 157.605ZM137.987 166.506H142.848V167.696H136.263V166.612L141.089 160.206H136.281V159.026H142.812V160.099L137.987 166.506ZM148.38 167.891C147.058 167.891 146.063 167.568 145.395 166.921C144.725 166.277 144.39 165.353 144.39 164.15V162.604C144.39 161.384 144.701 160.445 145.324 159.787C145.945 159.126 146.853 158.795 148.049 158.795C148.855 158.795 149.528 158.944 150.068 159.243C150.605 159.541 151.01 159.967 151.283 160.519C151.555 161.068 151.691 161.725 151.691 162.491V162.81C151.691 163 151.684 163.189 151.67 163.379C151.656 163.568 151.637 163.754 151.613 163.937H150.288C150.3 163.652 150.308 163.384 150.313 163.13C150.315 162.874 150.316 162.64 150.316 162.427C150.316 161.901 150.232 161.455 150.064 161.091C149.894 160.726 149.641 160.447 149.307 160.256C148.973 160.064 148.554 159.968 148.049 159.968C147.303 159.968 146.744 160.183 146.372 160.614C145.998 161.048 145.811 161.667 145.811 162.473V163.297L145.822 163.475V164.303C145.822 164.663 145.875 164.988 145.981 165.28C146.088 165.569 146.255 165.819 146.482 166.03C146.71 166.24 147 166.4 147.353 166.509C147.706 166.618 148.125 166.673 148.611 166.673C149.172 166.673 149.696 166.599 150.181 166.452C150.667 166.303 151.123 166.102 151.549 165.848L151.418 167.092C151.032 167.334 150.584 167.528 150.075 167.675C149.565 167.819 149 167.891 148.38 167.891ZM151.311 163.937H145.146V162.853H151.311V163.937ZM160.795 166.353H161.623L160.866 166.683L163.46 159.026H164.945L160.866 170.752H159.409L160.777 166.79L161.409 167.341H159.775L156.94 159.026H158.432L160.795 166.353ZM169.944 167.92C168.701 167.92 167.758 167.583 167.116 166.911C166.474 166.238 166.153 165.27 166.153 164.008V162.686C166.153 161.431 166.475 160.468 167.119 159.797C167.764 159.129 168.705 158.795 169.944 158.795C171.188 158.795 172.131 159.129 172.773 159.797C173.417 160.468 173.739 161.431 173.739 162.686V164.008C173.739 165.27 173.417 166.238 172.773 166.911C172.131 167.583 171.188 167.92 169.944 167.92ZM169.944 166.744C170.714 166.744 171.299 166.516 171.7 166.062C172.1 165.604 172.3 164.947 172.3 164.089V162.604C172.3 161.751 172.1 161.099 171.7 160.646C171.299 160.194 170.714 159.968 169.944 159.968C169.179 159.968 168.596 160.194 168.196 160.646C167.793 161.099 167.592 161.751 167.592 162.604V164.089C167.592 164.947 167.793 165.604 168.196 166.062C168.596 166.516 169.179 166.744 169.944 166.744ZM175.629 159.026H177.058V164.42C177.058 164.875 177.122 165.273 177.25 165.614C177.378 165.955 177.586 166.218 177.875 166.403C178.166 166.59 178.557 166.683 179.048 166.683C179.51 166.683 179.906 166.599 180.238 166.431C180.57 166.261 180.841 166.027 181.052 165.731C181.262 165.435 181.406 165.101 181.482 164.729L181.741 165.749H181.428C181.341 166.14 181.178 166.497 180.941 166.822C180.705 167.144 180.386 167.401 179.986 167.593C179.585 167.787 179.093 167.884 178.508 167.884C177.825 167.884 177.273 167.755 176.852 167.497C176.428 167.239 176.117 166.862 175.921 166.367C175.727 165.872 175.629 165.275 175.629 164.576V159.026ZM181.421 159.026H182.86V167.696H181.421L181.482 165.617L181.421 165.529V159.026ZM186.57 162.391L186.243 161.282L186.598 161.265C186.788 160.53 187.113 159.951 187.575 159.527C188.037 159.103 188.65 158.891 189.412 158.891C189.602 158.891 189.772 158.907 189.924 158.937C190.076 158.966 190.211 159.001 190.329 159.044L190.418 160.437C190.271 160.389 190.106 160.352 189.924 160.323C189.744 160.292 189.544 160.277 189.323 160.277C188.672 160.277 188.106 160.458 187.625 160.821C187.142 161.183 186.79 161.706 186.57 162.391ZM186.644 167.696H185.205V159.026H186.609L186.538 161.584L186.644 161.691V167.696ZM208.209 167.696H206.77V162.267C206.77 161.812 206.712 161.417 206.596 161.083C206.48 160.747 206.29 160.488 206.027 160.305C205.764 160.121 205.41 160.028 204.965 160.028C204.545 160.028 204.182 160.115 203.874 160.288C203.566 160.458 203.317 160.688 203.128 160.977C202.938 161.264 202.804 161.59 202.726 161.958L202.506 160.934H202.684C202.778 160.562 202.938 160.216 203.163 159.897C203.388 159.577 203.693 159.319 204.076 159.122C204.463 158.928 204.94 158.831 205.508 158.831C206.153 158.831 206.673 158.957 207.068 159.211C207.461 159.467 207.749 159.839 207.932 160.327C208.116 160.815 208.209 161.408 208.209 162.107V167.696ZM197.379 167.696H195.94V159.026H197.379L197.318 161.105L197.379 161.194V167.696ZM202.79 167.696H201.358V162.267C201.358 161.812 201.301 161.417 201.188 161.083C201.072 160.747 200.883 160.488 200.623 160.305C200.362 160.121 200.009 160.028 199.564 160.028C199.137 160.028 198.77 160.115 198.462 160.288C198.154 160.458 197.906 160.69 197.716 160.984C197.527 161.278 197.394 161.612 197.318 161.986L197.052 160.963H197.372C197.459 160.572 197.613 160.215 197.833 159.893C198.051 159.569 198.349 159.31 198.725 159.119C199.102 158.927 199.559 158.831 200.097 158.831C200.897 158.831 201.506 159.038 201.923 159.453C202.34 159.867 202.602 160.471 202.708 161.265C202.739 161.383 202.761 161.512 202.772 161.652C202.784 161.789 202.79 161.927 202.79 162.064V167.696ZM214.079 167.891C212.759 167.891 211.764 167.568 211.094 166.921C210.426 166.277 210.092 165.353 210.092 164.15V162.604C210.092 161.384 210.402 160.445 211.023 159.787C211.646 159.126 212.556 158.795 213.752 158.795C214.557 158.795 215.229 158.944 215.766 159.243C216.307 159.541 216.713 159.967 216.985 160.519C217.258 161.068 217.394 161.725 217.394 162.491V162.81C217.394 163 217.386 163.189 217.369 163.379C217.355 163.568 217.336 163.754 217.312 163.937H215.99C216.002 163.652 216.009 163.384 216.012 163.13C216.014 162.874 216.015 162.64 216.015 162.427C216.015 161.901 215.931 161.455 215.763 161.091C215.595 160.726 215.342 160.447 215.006 160.256C214.672 160.064 214.254 159.968 213.752 159.968C213.006 159.968 212.445 160.183 212.071 160.614C211.699 161.048 211.513 161.667 211.513 162.473V163.297L211.52 163.475V164.303C211.52 164.663 211.574 164.988 211.68 165.28C211.787 165.569 211.954 165.819 212.181 166.03C212.411 166.24 212.702 166.4 213.055 166.509C213.406 166.618 213.824 166.673 214.31 166.673C214.873 166.673 215.398 166.599 215.884 166.452C216.369 166.303 216.825 166.102 217.252 165.848L217.117 167.092C216.733 167.334 216.286 167.528 215.777 167.675C215.268 167.819 214.702 167.891 214.079 167.891ZM217.01 163.937H210.845V162.853H217.01V163.937ZM222.169 167.884C221.127 167.884 220.334 167.561 219.789 166.914C219.244 166.268 218.971 165.326 218.971 164.089V162.658C218.971 161.414 219.247 160.465 219.799 159.811C220.349 159.158 221.16 158.831 222.233 158.831C222.766 158.831 223.228 158.921 223.619 159.101C224.01 159.281 224.326 159.534 224.568 159.861C224.812 160.186 224.975 160.571 225.058 161.016H225.527L225.101 162.338C225.084 161.828 224.97 161.401 224.76 161.055C224.549 160.709 224.265 160.447 223.907 160.27C223.549 160.092 223.139 160.003 222.677 160.003C221.943 160.003 221.382 160.216 220.993 160.643C220.605 161.069 220.411 161.697 220.411 162.526V164.178C220.411 164.996 220.605 165.617 220.993 166.044C221.382 166.47 221.943 166.683 222.677 166.683C223.116 166.683 223.503 166.599 223.839 166.431C224.178 166.261 224.459 166.026 224.682 165.728C224.902 165.429 225.053 165.09 225.136 164.711L225.492 165.742H225.065C224.982 166.133 224.825 166.49 224.593 166.815C224.358 167.142 224.044 167.401 223.651 167.593C223.255 167.787 222.762 167.884 222.169 167.884ZM226.504 167.696H225.065L225.129 165.6L225.101 165.138V161.513L225.111 161.211L225.076 158.749V155.924H226.504V167.696ZM230.317 167.696H228.878V159.026H230.317V167.696ZM229.596 157.605C229.299 157.605 229.079 157.527 228.935 157.37C228.79 157.212 228.718 156.996 228.718 156.724V156.681C228.718 156.402 228.79 156.185 228.935 156.031C229.079 155.877 229.299 155.8 229.596 155.8C229.892 155.8 230.114 155.877 230.264 156.031C230.41 156.185 230.484 156.402 230.484 156.681V156.724C230.484 157.003 230.41 157.22 230.264 157.374C230.114 157.528 229.892 157.605 229.596 157.605ZM236.034 167.891C234.79 167.891 233.865 167.555 233.259 166.882C232.653 166.21 232.349 165.257 232.349 164.026V162.675C232.349 161.439 232.654 160.488 233.262 159.822C233.874 159.154 234.797 158.82 236.034 158.82C236.401 158.82 236.736 158.854 237.04 158.923C237.34 158.992 237.612 159.081 237.853 159.19C238.092 159.299 238.295 159.412 238.461 159.531L238.585 160.785C238.306 160.572 237.975 160.391 237.594 160.241C237.212 160.095 236.764 160.021 236.247 160.021C235.418 160.021 234.801 160.251 234.396 160.71C233.991 161.168 233.788 161.834 233.788 162.711V163.99C233.788 164.85 233.991 165.511 234.396 165.973C234.801 166.435 235.418 166.666 236.247 166.666C236.78 166.666 237.241 166.591 237.629 166.442C238.018 166.295 238.363 166.115 238.663 165.902L238.532 167.17C238.271 167.348 237.93 167.512 237.509 167.664C237.089 167.816 236.598 167.891 236.034 167.891ZM246.978 167.696H245.549L245.61 165.589L245.557 165.369V162.604L245.567 162.1C245.567 161.394 245.387 160.873 245.027 160.536C244.669 160.198 244.103 160.028 243.329 160.028C242.706 160.028 242.135 160.117 241.616 160.295C241.1 160.472 240.64 160.681 240.237 160.92L240.369 159.691C240.594 159.556 240.862 159.422 241.172 159.289C241.485 159.154 241.84 159.043 242.238 158.955C242.638 158.865 243.079 158.82 243.56 158.82C244.18 158.82 244.709 158.896 245.144 159.047C245.58 159.199 245.932 159.417 246.2 159.701C246.47 159.986 246.668 160.329 246.793 160.732C246.916 161.134 246.978 161.584 246.978 162.082V167.696ZM242.565 167.884C241.705 167.884 241.045 167.675 240.586 167.255C240.128 166.838 239.9 166.242 239.9 165.465V165.209C239.9 164.408 240.146 163.811 240.639 163.418C241.134 163.025 241.92 162.751 242.998 162.597L245.745 162.206L245.823 163.254L243.176 163.635C242.513 163.729 242.039 163.892 241.755 164.121C241.47 164.349 241.328 164.684 241.328 165.127V165.269C241.328 165.726 241.469 166.076 241.751 166.317C242.033 166.561 242.455 166.683 243.016 166.683C243.514 166.683 243.94 166.597 244.295 166.424C244.651 166.253 244.938 166.022 245.159 165.731C245.377 165.442 245.525 165.12 245.603 164.765L245.823 165.742H245.549C245.467 166.121 245.31 166.473 245.08 166.797C244.853 167.124 244.536 167.387 244.128 167.586C243.718 167.785 243.197 167.884 242.565 167.884ZM252.333 167.874C251.665 167.874 251.126 167.773 250.716 167.572C250.308 167.37 250.012 167.065 249.828 166.655C249.645 166.247 249.554 165.738 249.554 165.127V159.655H250.975V164.96C250.975 165.529 251.106 165.948 251.366 166.218C251.627 166.486 252.065 166.619 252.681 166.619C253.029 166.619 253.365 166.581 253.69 166.506C254.012 166.428 254.315 166.317 254.6 166.175L254.464 167.412C254.187 167.554 253.862 167.666 253.487 167.749C253.115 167.832 252.731 167.874 252.333 167.874ZM254.376 160.305H248.133V159.151H254.511L254.376 160.305ZM250.94 159.293H249.561L249.554 156.859L251 156.67L250.94 159.293ZM257.673 167.696H256.234V159.026H257.673V167.696ZM256.952 157.605C256.656 157.605 256.435 157.527 256.291 157.37C256.146 157.212 256.074 156.996 256.074 156.724V156.681C256.074 156.402 256.146 156.185 256.291 156.031C256.435 155.877 256.656 155.8 256.952 155.8C257.248 155.8 257.471 155.877 257.62 156.031C257.767 156.185 257.84 156.402 257.84 156.681V156.724C257.84 157.003 257.767 157.22 257.62 157.374C257.471 157.528 257.248 157.605 256.952 157.605ZM263.497 167.92C262.253 167.92 261.31 167.583 260.668 166.911C260.026 166.238 259.705 165.27 259.705 164.008V162.686C259.705 161.431 260.028 160.468 260.672 159.797C261.319 159.129 262.26 158.795 263.497 158.795C264.74 158.795 265.684 159.129 266.329 159.797C266.971 160.468 267.292 161.431 267.292 162.686V164.008C267.292 165.27 266.971 166.238 266.329 166.911C265.684 167.583 264.74 167.92 263.497 167.92ZM263.497 166.744C264.267 166.744 264.852 166.516 265.252 166.062C265.652 165.604 265.853 164.947 265.853 164.089V162.604C265.853 161.751 265.652 161.099 265.252 160.646C264.852 160.194 264.267 159.968 263.497 159.968C262.734 159.968 262.151 160.194 261.749 160.646C261.346 161.099 261.145 161.751 261.145 162.604V164.089C261.145 164.947 261.346 165.604 261.749 166.062C262.151 166.516 262.734 166.744 263.497 166.744ZM276.53 167.696H275.091V162.302C275.091 161.836 275.027 161.434 274.899 161.098C274.771 160.759 274.564 160.496 274.277 160.309C273.991 160.122 273.599 160.028 273.101 160.028C272.644 160.028 272.248 160.115 271.914 160.288C271.58 160.458 271.309 160.69 271.101 160.984C270.895 161.278 270.75 161.612 270.667 161.986L270.408 160.963H270.72C270.815 160.572 270.981 160.215 271.218 159.893C271.455 159.569 271.772 159.31 272.17 159.119C272.57 158.927 273.061 158.831 273.641 158.831C274.328 158.831 274.884 158.961 275.308 159.222C275.732 159.482 276.041 159.856 276.235 160.344C276.432 160.832 276.53 161.432 276.53 162.142V167.696ZM270.728 167.696H269.288V159.026H270.728L270.667 161.105L270.728 161.187V167.696ZM281.465 167.891C280.767 167.891 280.157 167.816 279.635 167.664C279.114 167.512 278.682 167.348 278.339 167.17L278.207 165.838C278.638 166.063 279.113 166.258 279.632 166.424C280.151 166.59 280.738 166.673 281.394 166.673C282.065 166.673 282.568 166.566 282.904 166.353C283.243 166.142 283.412 165.826 283.412 165.404V165.305C283.412 165.032 283.349 164.807 283.221 164.63C283.093 164.452 282.863 164.296 282.531 164.161C282.2 164.023 281.729 163.887 281.121 163.752C280.391 163.591 279.817 163.403 279.397 163.187C278.976 162.971 278.675 162.704 278.495 162.384C278.315 162.064 278.225 161.673 278.225 161.211V161.13C278.225 160.372 278.488 159.797 279.014 159.406C279.542 159.016 280.335 158.82 281.394 158.82C282.076 158.82 282.668 158.897 283.167 159.051C283.667 159.205 284.077 159.377 284.397 159.566L284.532 160.785C284.146 160.56 283.704 160.373 283.206 160.224C282.709 160.077 282.15 160.003 281.529 160.003C281.079 160.003 280.714 160.049 280.435 160.142C280.158 160.232 279.956 160.362 279.831 160.533C279.708 160.701 279.646 160.903 279.646 161.14V161.211C279.646 161.472 279.708 161.692 279.831 161.872C279.956 162.052 280.18 162.21 280.502 162.345C280.825 162.478 281.273 162.605 281.849 162.729C282.588 162.878 283.176 163.056 283.611 163.262C284.047 163.47 284.36 163.733 284.55 164.05C284.739 164.365 284.834 164.772 284.834 165.269V165.422C284.834 166.239 284.55 166.855 283.981 167.27C283.412 167.684 282.574 167.891 281.465 167.891Z" fill="#EAEAEA"/>
</g>
</g>
</g>
</g>
</g>
</g>
</g>
<path d="M208.258 0.41333C278.771 0.41333 335.935 57.5766 335.935 128.09C335.935 198.604 278.771 255.767 208.258 255.767C155.364 255.767 109.982 223.602 90.604 177.764H93.4034C112.624 222.144 156.814 253.194 208.258 253.194C277.351 253.194 333.361 197.183 333.361 128.09C333.361 58.9969 277.351 2.98649 208.258 2.98649C156.815 2.98649 112.624 34.0359 93.4034 78.416H90.604C109.981 32.5784 155.363 0.41333 208.258 0.41333Z" fill="white"/>
</g>
<defs>
<clipPath id="clip0_219_1556">
<rect width="408.566" height="255.354" fill="white" transform="translate(-45.6661 0.413208)"/>
</clipPath>
<clipPath id="clip1_219_1556">
<rect width="252.494" height="85.8772" fill="white" transform="translate(32.3698 85.151)"/>
</clipPath>
<clipPath id="clip2_219_1556">
<rect width="252.494" height="85.8772" fill="white" transform="translate(32.3698 85.151)"/>
</clipPath>
<clipPath id="clip3_219_1556">
<rect width="252.494" height="85.8772" fill="white" transform="translate(32.3698 85.151)"/>
</clipPath>
<clipPath id="clip4_219_1556">
<rect width="252.494" height="85.8772" fill="white" transform="translate(32.3698 85.151)"/>
</clipPath>
<clipPath id="clip5_219_1556">
<rect width="252.494" height="85.8772" fill="white" transform="translate(32.3698 85.151)"/>
</clipPath>
<clipPath id="clip6_219_1556">
<rect width="252.494" height="57.0632" fill="white" transform="translate(32.3698 85.151)"/>
</clipPath>
<clipPath id="clip7_219_1556">
<rect width="252.494" height="57.0632" fill="white" transform="translate(32.3698 85.151)"/>
</clipPath>
<clipPath id="clip8_219_1556">
<rect width="252.494" height="15.3428" fill="white" transform="translate(32.3698 155.686)"/>
</clipPath>
<clipPath id="clip9_219_1556">
<rect width="252.494" height="15.3428" fill="white" transform="translate(32.3698 155.686)"/>
</clipPath>
</defs>
</svg>
